HIERARCHY
ROOT Hips
{
  OFFSET -69.4423 88.0299 51.6846
  CHANNELS 6 Xposition Yposition Zposition Zrotation Xrotation Yrotation
  JOINT Spine
  {
    OFFSET 12.0259 -0.162853 1.93176e-005
    CHANNELS 3 Zrotation Xrotation Yrotation
    JOINT Spine1
    {
      OFFSET 15.3169 -0.0121909 0
      CHANNELS 3 Zrotation Xrotation Yrotation
      JOINT Spine2
      {
        OFFSET 15.3176 -0.0121922 0
        CHANNELS 3 Zrotation Xrotation Yrotation
        JOINT Neck
        {
          OFFSET 19.9142 1.56236 0
          CHANNELS 3 Zrotation Xrotation Yrotation
          JOINT Head
          {
            OFFSET 6.92646 0 0
            CHANNELS 3 Zrotation Xrotation Yrotation
            End Site
            {
              OFFSET 20.7666 0 0
            }
          }
          JOINT LeftShoulder
          {
            OFFSET -4.94072 -1.14703 8.14416
            CHANNELS 3 Zrotation Xrotation Yrotation
            JOINT LeftArm
            {
              OFFSET 14.108 0 -2.74767e-005
              CHANNELS 3 Zrotation Xrotation Yrotation
              JOINT LeftForeArm
              {
                OFFSET 28.5802 -0.0783412 -0.0284884
                CHANNELS 3 Zrotation Xrotation Yrotation
                JOINT LeftHand
                {
                  OFFSET 27.092 0 0
                  CHANNELS 3 Zrotation Xrotation Yrotation
                  End Site
                  {
                    OFFSET 9.55928 -0.186424 0.145352
                  }
                }
              }
            }
          }
          JOINT RightShoulder
          {
            OFFSET -7.15748 -1.33027 -6.24935
            CHANNELS 3 Zrotation Xrotation Yrotation
            JOINT RightArm
            {
              OFFSET 14.108 0 1.82997e-005
              CHANNELS 3 Zrotation Xrotation Yrotation
              JOINT RightForeArm
              {
                OFFSET 28.5802 -0.0707221 2.30684e-005
                CHANNELS 3 Zrotation Xrotation Yrotation
                JOINT RightHand
                {
                  OFFSET 27.092 0 -1.30073e-005
                  CHANNELS 3 Zrotation Xrotation Yrotation
                  End Site
                  {
                    OFFSET 9.55929 -0.186417 -0.145354
                  }
                }
              }
            }
          }
        }
      }
    }
  }
  JOINT LeftUpLeg
  {
    OFFSET 0.00499725 -0.534999 8.837
    CHANNELS 3 Zrotation Xrotation Yrotation
    JOINT LeftLeg
    {
      OFFSET 39.9035 -0.00124594 0.000252775
      CHANNELS 3 Zrotation Xrotation Yrotation
      JOINT LeftFoot
      {
        OFFSET 39.6689 0 0
        CHANNELS 3 Zrotation Xrotation Yrotation
        JOINT LeftToe
        {
          OFFSET 10.1624 13.6296 0
          CHANNELS 3 Zrotation Xrotation Yrotation
          End Site
          {
            OFFSET 8.38147 0 0
          }
        }
      }
    }
  }
  JOINT RightUpLeg
  {
    OFFSET 0.00499725 -0.535 -8.837
    CHANNELS 3 Zrotation Xrotation Yrotation
    JOINT RightLeg
    {
      OFFSET 39.9036 -0.000268477 0.000106433
      CHANNELS 3 Zrotation Xrotation Yrotation
      JOINT RightFoot
      {
        OFFSET 39.6689 1.17892e-005 0
        CHANNELS 3 Zrotation Xrotation Yrotation
        JOINT RightToe
        {
          OFFSET 10.1624 13.6296 0
          CHANNELS 3 Zrotation Xrotation Yrotation
          End Site
          {
            OFFSET 8.38147 0 0
          }
        }
      }
    }
  }
}
MOTION
Frames:	13
Frame Time:	0.0333333
34.7948 89.55 42.503 86.852 -75.8392 -2.34112 0.840499 1.05645 0.63702 1.66964 2.1226 1.25896 1.66963 2.12258 1.25894 -14.5346 0.974069 -11.9215 50.1448 0.847736 10.9055 -167.278 -0.703934 -95.1388 -14.5871 5.39868 84.3331 -21.9881 2.02685 -14.0581 9.34311 -81.6213 11.7785 -167.303 -3.18692 72.7747 -3.98132 -2.76907 -80.7413 -25.2004 -2.94492 15.1287 5.0316 83.7966 -4.91392 -9.89784 -5.35389 -169.148 -32.4699 0.820468 -1.29779 2.34408 -1.11856 0.744435 90 5.56597e-015 -1.59028e-015 -3.57164 -5.44543 178.602 -30.3171 -0.623898 0.572379 6.67184 -6.13599 -2.1649 90 -6.36111e-015 -0 
33.4695 89.7432 42.7397 86.6007 -77.0378 -2.51046 0.868858 0.987944 0.595483 1.7278 1.98525 1.17634 1.72779 1.98525 1.17633 -14.706 1.09019 -11.8736 49.7362 0.868677 10.5378 -166.992 -0.52844 -94.977 -12.2462 4.02195 83.4146 -20.0796 1.76035 -13.0445 8.86882 -80.1999 11.1707 -167.142 -3.14209 72.7994 -6.68515 -2.82766 -80.6685 -26.2486 -3.18717 15.7101 5.47236 84.1821 -5.36266 -9.18611 -6.63869 -166.804 -30.8181 0.754678 -1.33437 -0.789859 -0.880341 0.472254 90 -1.19271e-015 -1.27222e-014 -3.00882 -4.83991 177.564 -28.9096 -0.617853 0.622958 6.21537 -6.84187 -2.24342 90 1.27222e-014 1.74931e-014 
31.9936 89.911 42.956 86.6863 -78.3228 -2.05118 0.867847 0.97249 0.52024 1.72723 1.95323 1.02609 1.72723 1.95323 1.02607 -14.5002 1.08265 -11.4281 48.8138 0.385791 9.6003 -167.205 -0.365628 -94.6417 -12.1662 4.68137 83.5012 -20.9969 1.89342 -13.5088 9.52388 -80.8189 11.897 -167.322 -2.93687 73.2829 -8.38605 -3.09536 -80.5507 -27.5122 -3.46458 16.367 5.08135 84.8531 -4.99337 -8.28997 -7.99984 -164.884 -28.6192 0.701218 -1.36236 -6.20824 1.23082 0.619222 90 3.18055e-015 4.77083e-015 -2.63447 -3.77115 176.217 -27.6918 -0.606483 0.6877 5.76863 -7.1463 -2.28409 90 7.15625e-015 -0 
30.3035 89.9394 43.1472 86.2261 -79.5505 -1.82183 0.886011 0.946283 0.375043 1.76618 1.89873 0.735711 1.76618 1.89872 0.735699 -14.644 1.11146 -11.43 48.8468 0.329706 9.52432 -167.064 -0.34943 -94.6583 -12.0914 4.94278 83.2446 -21.294 1.93308 -13.6479 9.58498 -80.9983 11.9619 -167.174 -2.93578 73.3105 -9.51127 -2.98792 -80.4026 -27.8084 -3.54347 16.5459 5.18296 84.8474 -5.14776 -6.80218 -9.92893 -163.572 -25.661 0.664284 -1.42654 -14.0167 3.83953 1.33806 90 -4.96962e-016 1.11319e-014 -2.60017 -2.67125 174.394 -27.3726 -0.576298 0.742697 5.6175 -7.39456 -2.31941 90 -3.18055e-015 6.36111e-015 
28.5166 89.8298 43.305 86.0031 -80.5633 -1.89817 0.861353 0.907463 0.383019 1.71695 1.82107 0.752648 1.71695 1.82106 0.752638 -14.6352 1.11231 -11.575 48.8927 0.280503 9.5879 -167.099 -0.383193 -94.8409 -12.4957 5.41549 83.4218 -21.9121 2.00392 -13.9738 7.09703 -81.1944 9.56391 -167.183 -2.95881 73.1793 -9.95746 -2.96369 -79.9397 -27.7171 -3.51776 16.4931 5.34682 84.9426 -5.293 -5.32363 -11.5714 -161.951 -22.9009 0.661147 -1.51113 -20.1981 7.05709 3.2256 90 8.74653e-015 -5.56597e-015 -2.62085 -1.43104 173.103 -27.319 -0.552053 0.789141 5.55588 -7.32954 -2.28802 90 -4.77083e-015 3.18055e-015 
26.531 89.6296 43.4203 86.1964 -81.3287 -1.33842 0.851809 0.793829 0.329019 1.69931 1.5929 0.646445 1.69929 1.5929 0.646425 -14.8302 1.17076 -11.6358 48.9957 0.432854 9.70573 -166.903 -0.370243 -94.9176 -12.7742 5.42291 83.3185 -22.0838 2.05536 -14.0483 11.0755 -81.4783 13.5799 -166.974 -2.96373 73.1156 -10.2567 -2.79782 -79.5005 -27.5203 -3.47058 16.3869 5.35128 84.9627 -5.2927 -3.9215 -13.0525 -160.942 -20.8723 0.649955 -1.59627 -20.6396 7.93882 3.86316 90 1.35174e-014 4.77083e-015 -2.4131 -0.362005 171.498 -27.0738 -0.502419 0.819704 6.42005 -6.94402 -2.20722 90 -2.38542e-015 -1.59028e-015 
24.3607 89.3421 43.4391 85.4679 -82.1211 -2.03279 0.815937 0.71882 0.351154 1.62766 1.443 0.692278 1.62766 1.44299 0.692271 -14.9438 1.16214 -11.4891 49.2821 0.231803 9.59494 -166.817 -0.363214 -94.8152 -13.434 5.86285 83.5271 -22.6423 2.13138 -14.3451 11.283 -82.2434 13.7473 -166.856 -2.93475 73.2668 -10.0768 -2.9615 -79.1307 -27.3599 -3.43018 16.2961 5.03316 84.7097 -4.97612 -2.4094 -14.2014 -160.048 -18.9883 0.627115 -1.6676 -21.1981 8.74698 4.46988 90 -4.77083e-015 3.18055e-015 -2.04779 0.977654 170.155 -26.868 -0.463408 0.854537 6.57341 -6.6433 -2.15157 90 7.15625e-015 -0 
21.9936 88.917 43.5415 87.4491 -82.6542 -0.227262 0.738641 0.644991 0.43603 1.4725 1.29598 0.863939 1.47249 1.29598 0.863935 -14.9716 1.05164 -11.6676 49.121 0.232233 9.99468 -166.824 -0.526272 -94.9772 -13.5723 5.64293 83.7277 -22.9523 2.18395 -14.527 10.4121 -81.8573 12.9504 -166.844 -3.11499 73.1039 -9.15663 -2.70709 -78.4142 -26.7731 -3.28327 15.9622 4.65189 84.404 -4.58707 -1.60901 -15.3778 -159.599 -17.1844 0.645387 -1.75703 -22.5604 10.7142 5.93612 90 -6.36111e-015 -6.36111e-015 -2.18151 2.15511 168.904 -27.103 -0.429997 0.882018 6.83954 -5.77418 -2.02993 90 9.54166e-015 -1.59028e-014 
19.4021 88.3762 43.6573 89.3339 -83.3383 1.5805 0.629734 0.649727 0.501617 1.25388 1.30536 0.996316 1.25386 1.30535 0.996303 -15.0257 0.890654 -11.5375 49.1733 -0.0200512 10.1884 -166.831 -0.66306 -94.8441 -13.9367 5.76417 84.0868 -23.2326 2.22811 -14.6925 10.9688 -82.2414 13.4763 -166.825 -3.25798 73.2546 -7.8531 -2.95975 -77.8448 -26.4465 -3.20376 15.7749 4.56715 84.3312 -4.4983 -1.12535 -15.6523 -159.82 -16.3577 0.681058 -1.80546 -20.1561 12.6232 6.77848 90 9.54166e-015 3.18055e-015 -2.5719 3.48815 167.406 -27.719 -0.394988 0.901959 6.52506 -5.25109 -1.98216 90 8.74653e-015 1.59028e-015 
16.6017 87.7947 43.6913 90.3561 -84.0484 2.19722 0.554762 0.674081 0.653164 1.10192 1.35493 1.30007 1.10191 1.35492 1.30006 -15.0049 0.664855 -11.4901 49.0032 -0.27874 10.5226 -166.906 -0.876233 -94.759 -14.4122 5.53977 84.5972 -23.223 2.23601 -14.7177 11.4511 -82.3082 13.9714 -166.879 -3.47078 73.316 -6.47757 -3.09483 -77.0857 -25.9969 -3.09751 15.5131 4.3351 83.9881 -4.24649 -0.655858 -14.9166 -160.237 -16.9736 0.684973 -1.7783 -15.4318 13.1067 6.23526 90 -1.43125e-014 -6.36111e-015 -2.67942 4.49041 166.149 -28.0389 -0.360466 0.916506 6.40444 -4.35018 -1.87028 90 1.82882e-014 6.36111e-015 
13.6543 87.348 43.7514 91.7232 -84.9669 3.55614 0.479138 0.693901 0.71788 0.94966 1.39424 1.43025 0.949653 1.39424 1.43024 -15.1721 0.563943 -11.4987 49.2732 -0.150334 11.1029 -166.792 -1.04032 -94.7507 -15.3624 5.56978 85.0375 -23.2554 2.23331 -14.751 12.5201 -82.9332 15.0707 -166.741 -3.63674 73.3123 -5.41427 -3.34388 -76.4072 -25.7049 -3.02911 15.3444 4.21718 83.781 -4.12701 -1.01497 -12.9618 -161.632 -17.6969 0.716586 -1.74584 -10.6387 14.092 5.80144 90 -7.95139e-015 1.59028e-014 -2.11206 6.77819 164.671 -27.806 -0.326061 0.962823 5.37068 -2.30397 -1.51749 90 6.36111e-015 1.27222e-014 
10.5983 87.047 43.7622 91.6298 -85.8424 3.80483 0.461964 0.730824 0.704418 0.914996 1.46776 1.40327 0.914999 1.46776 1.40326 -15.2697 0.497943 -11.4373 49.2988 -0.149916 11.307 -166.711 -1.10409 -94.646 -16.0958 5.27239 85.2914 -22.9135 2.17868 -14.5888 13.1287 -83.0377 15.7241 -166.644 -3.74189 73.3382 -3.13245 -2.6126 -75.9632 -24.9178 -2.85638 14.9171 3.48304 82.2111 -3.34448 -1.15079 -10.1982 -163.894 -18.3817 0.735693 -1.71625 -5.32958 13.156 4.51585 90 1.98785e-014 1.59028e-014 -0.998428 9.43909 162.808 -27.3448 -0.267015 1.01085 4.01907 -0.243134 -1.04301 90 -6.36111e-015 1.59028e-015 
7.50646 86.9732 43.9009 92.807 -86.135 5.11673 0.441246 0.672549 0.735576 0.873932 1.35117 1.46626 0.873912 1.35117 1.46626 -15.2836 0.577929 -11.3327 49.3702 -0.0987972 11.1317 -166.667 -1.00232 -94.5253 -15.9364 4.66423 85.6038 -22.2891 2.07644 -14.2964 10.8193 -82.5357 13.3462 -166.622 -3.66083 73.4053 -1.11966 -2.49477 -76.0976 -25.274 -2.94464 15.1078 3.6531 81.7648 -3.41425 -1.95024 -7.72533 -166.401 -19.268 0.776081 -1.71469 -2.49742 11.4749 3.55603 90 1.03368e-014 -1.59028e-015 0.218296 10.9454 161.053 -26.3436 -0.211572 1.01181 1.39923 1.8862 -0.286001 90 -2.38542e-015 7.95139e-015 
